<svg xmlns="http://www.w3.org/2000/svg" viewBox="0 0 684.6 302.341">
  <defs>
    <style>
      .cls-1 {
        opacity: 0.32;
      }

      .cls-2 {
        fill: #404b69;
      }

      .cls-3 {
        fill: #283149;
      }
    </style>
  </defs>
  <g id="mountain-contact" class="cls-1">
    <path id="Path_199" data-name="Path 199" class="cls-2" d="M0,302.341H684.6s-52.236-61.383-55.606-70.771c-3.37-9.147-44.533-75.826-52.236-79.918-7.7-4.333-16.369-15.887-16.369-15.887s-26,42.848-29.367,44.533-9.869,8.425-9.869,8.425-29.367-60.661-41.4-67.4-19.5-22.868-30.571-37.07c-10.832-14.2-53.439-75.826-53.439-75.826l-8.666,5.055L374.315,0s-20.7,33.7-22.868,38.755-9.869,14.2-14.2,22.627S318.71,97.49,306.674,105.193c-12.036,7.462-32.738,29.367-32.738,29.367S261.9,117.711,256.6,107.6c-5.537-10.11-21.665-24.312-28.4-29.367-6.5-5.055-19.5,8.425-26.238,15.165-6.5,6.74-13,15.165-19.5,19.257-6.5,4.333-22.868,15.887-26.238,24.312s-14.2,21.905-25.035,30.33-43.57,30.33-48.866,38.755c-5.536,8.425-6.5,26.96-16.369,35.385C56.569,250.105,10.832,288.138,0,302.341Z"/>
    <path id="Path_200" data-name="Path 200" class="cls-3" d="M285.716,112.869c-.481-.481-2.166-.481-2.407.241-1.444,2.407-3.611,4.814-4.814,7.222-1.685-1.444-3.852-2.889-6.259-2.407a21.338,21.338,0,0,0-4.092,1.926c-4.092,1.926-7.221-.722-10.592-2.166a12.257,12.257,0,0,0-5.055-1.444c-4.574,0-5.777,1.2-9.147-2.407-4.333-4.574-7.944-9.629-13-13.721a1.8,1.8,0,0,0-2.166,0c-2.166,1.444-4.092,2.648-6.259,4.092A15.572,15.572,0,0,1,220,102.036c.722-.481,1.2-.963,1.685-1.2,3.37-1.685,29.368-44.533,29.368-44.533s8.666,11.8,16.369,15.887c4.092,2.407,18.776,23.59,31.293,43.811C294.382,117.924,289.808,116.72,285.716,112.869Z" transform="translate(309.578 79.224)"/>
    <path id="Path_201" data-name="Path 201" class="cls-3" d="M258.118,90.991c-7.7,5.055-18.294-6.981-22.868-10.592-2.166-1.444-10.832-8.666-14.443-6.5-4.814,2.648-8.425-.963-12.277-2.648a17.487,17.487,0,0,0-8.666-1.685,2.581,2.581,0,0,0-1.444.481c-1.685,2.648-4.092,4.814-6.259,7.222a45.625,45.625,0,0,1-5.055-4.574,1.884,1.884,0,0,0-2.648,0c-2.889,3.851-5.536,7.7-9.869,10.592a35.121,35.121,0,0,0-8.184-9.869,1.824,1.824,0,0,0-2.407.241c-2.407,2.889-5.777,5.055-7.944,7.944-5.536-3.611-12.517-6.018-18.054-9.629,2.407-4.333,4.333-8.184,5.536-10.592,4.333-8.425,12.036-17.572,14.2-22.627C159.424,33.7,180.126,0,180.126,0l13,13.48,8.666-5.055s42.366,61.383,53.439,75.826c1.444,1.926,2.889,3.851,4.092,5.536A2.9,2.9,0,0,1,258.118,90.991Z" transform="translate(194.19)"/>
    <path id="Path_202" data-name="Path 202" class="cls-3" d="M166.813,78.4a3.421,3.421,0,0,0-1.444.481,21.3,21.3,0,0,0-2.889,4.092c-2.407-.963-4.574-1.926-6.981-2.648-.722-.241-2.166,0-2.166.722-.241.481-1.926,6.018-2.889,5.3a1.824,1.824,0,0,0-2.407.241c-.241.241-3.129,4.092-3.37,4.092a34.106,34.106,0,0,1-4.333-1.926,1.517,1.517,0,0,0-2.166.722c-.963,2.407-2.648,4.574-4.092,6.981-2.407-3.129-5.3-6.259-7.221-9.869-.481-.963-2.648-.722-2.889.241a16.761,16.761,0,0,1-2.648,5.536C118.669,86.588,115.781,80.81,110.244,76a1.824,1.824,0,0,0-2.407.241c-4.092,4.814-6.981,10.11-11.314,14.924-2.648-5.536-4.814-11.073-7.7-16.369a1.607,1.607,0,0,0-2.889,0,25.839,25.839,0,0,1-7.7,10.11c-2.166-3.851-5.055-5.536-9.629-3.611,6.018-5.777,13.721-11.073,17.572-13.721,6.5-4.333,13-12.517,19.5-19.257s19.5-20.22,26.238-15.165c6.5,5.055,22.868,19.257,28.4,29.367,2.407,4.574,6.5,10.832,9.869,15.887A15.772,15.772,0,0,1,166.813,78.4Z" transform="translate(96.532 45.085)"/>
  </g>
</svg>
