<svg id="mountain-background" xmlns="http://www.w3.org/2000/svg" viewBox="0 0 1366 555.051">
  <defs>
    <style>
      .cls-1 {
        fill: #f73859;
      }

      .cls-2 {
        fill: #333;
      }
    </style>
  </defs>
  <path id="Path_1" data-name="Path 1" class="cls-1" d="M414.167,245.327c.455.455.911,1.366,1.366,1.821-4.553,3.643-9.562,5.919-14.115,5.919-9.107,0-9.562-14.571-11.383-23.677a3.363,3.363,0,0,0-2.732-2.277,23.8,23.8,0,0,0-6.83,3.187c-1.821-6.375-5.009-10.017-10.473-12.749h0a.446.446,0,0,1-.455-.455c-1.366-.455-2.277,0-2.277,1.366-8.2,3.187-8.651-15.481-18.669-8.2-4.553,3.187-9.562-3.643-14.571-4.1-7.741-.911-13.66,3.187-20.945,3.187-18.213.455-37.793-8.651-50.087-26.409a79.246,79.246,0,0,1-8.2-15.026v-.455l.455.455c3.643,3.187,6.83,7.285,10.928,10.473,8.2,6.83,17.758,5.009,27.32,5.919a31.68,31.68,0,0,0,24.588-8.651c5.464-4.553,11.383-13.66,5.464-21.856-6.83-9.107-23.677-12.749-15.481-29.141.911-1.366,0-3.187-.911-4.1A231.2,231.2,0,0,1,282.575,97.8c-3.643-4.1-7.285-9.107-11.383-12.749.455-3.643.911-7.741,1.821-11.839,0-.911.455-.911.455-.911h.455c4.1,0,11.839,6.375,16.847,10.928,5.009,4.1,8.2,6.375,10.473,7.285a6.093,6.093,0,0,0,2.277.455l.455.455c1.366,1.366,4.1,3.643,13.2,9.107a39.461,39.461,0,0,1,6.375,4.553c-.455,4.1.455,7.741,4.1,14.115,8.2,13.66,21.856,21.856,42.8,25.5,2.277.455,6.83,1.366,7.741,2.277a9.263,9.263,0,0,1,.455,2.277,97.384,97.384,0,0,0,6.375,18.213c6.375,12.749,6.375,13.2,8.2,20.035.911,4.553,2.277,10.928,5.919,24.133C405.516,234.854,410.524,240.773,414.167,245.327Z" transform="translate(905.389 256.906)"/>
  <path id="Path_2" data-name="Path 2" class="cls-1" d="M228.231,176.062a34.579,34.579,0,0,1,5.009,1.821,22.868,22.868,0,0,1-.911,9.562c-1.821,4.553-2.277,8.651-2.732,13.66-.911,19.579-4.553,33.695-21.4,37.337-1.366.455-1.821,2.732-1.366,4.1a77.471,77.471,0,0,1,4.553,14.571c1.821,10.928-5.464,10.473-11.383,7.285-1.366-.911-3.643,1.366-2.732,3.643,6.375,20.035-3.187,33.239-5.009,52.819-1.366,18.669-5.919,32.329-13.66,46.444.455-12.749,1.366-26.865-1.366-37.793-1.366-5.009-8.651-16.392-6.83-20.035A75.811,75.811,0,0,0,175.867,299c2.277-7.285,0-15.026-5.464-18.669-1.366-.911-4.553-3.187-6.375-2.277-4.553,1.821-4.1,1.821-7.285-3.187-4.553-7.741-15.481-13.66-22.767-15.481-3.187-.455-9.562-1.821-12.294,1.366-5.009,6.375-6.83,19.124-10.473,27.32-4.1,9.562-9.107,18.669-15.481,25.043,6.375-16.392.455-41.435,8.651-57.372,1.366-2.277-.911-5.009-2.732-4.1-16.392,5.919-11.383-27.32-19.124-37.793-5.009-6.83-11.383-11.839-13.66-20.945C66.587,184.258,63.4,174.7,63.4,165.134c5.464,10.017,11.383,20.035,15.481,30.963,3.187,7.741,9.562,10.017,15.481,12.294,8.651,3.187,7.285,17.758,17.3,19.579,10.473,2.277,20.945,3.187,31.418,4.553,7.741.911,13.66,7.285,20.945,5.464,2.732-.455,4.553-4.1,7.741-4.553a53.259,53.259,0,0,0,9.107-2.277c13.2-4.1,20.49-15.026,22.767-31.873.455-1.821-.911-4.553-2.732-3.643,2.732-1.366-.455-7.741-1.366-7.285a2.571,2.571,0,0,0,.911-2.732c-1.366-11.839-.455-18.213-6.375-28.231-4.1-6.375-9.107-14.571-15.481-16.392,2.277-12.749,8.651-24.133-5.464-25.954-14.571-1.821-34.605-5.464-45.533,9.562.455-8.651,5.919-17.3,13.2-18.669,3.643-.911,7.285-.455,10.928-1.366,4.553-1.366,6.83-4.1,9.562-9.107.455-1.366.455-3.187-.911-4.1-11.383-7.741-9.107-29.6-14.571-43.257-1.821-5.009-3.643-9.107-5.009-13.66a44.981,44.981,0,0,1,6.83-4.1A1.673,1.673,0,0,1,149,29.9a19.722,19.722,0,0,0,.455,2.277c.911,5.464,1.821,14.115,7.741,22.767,6.375,10.017,8.2,11.383,14.115,15.026,4.1,2.732,10.928,6.83,24.133,18.669,1.366,1.366,3.187,2.732,4.1,3.643h0c-2.277,4.1-.455,9.107,0,10.928a35.74,35.74,0,0,1,2.732,15.481c0,5.919.455,13.66,4.1,29.141C212.749,169.687,217.758,172.419,228.231,176.062Z" transform="translate(225.281 106.245)"/>
  <path id="Path_3" data-name="Path 3" class="cls-1" d="M124.016,163.8c-1.821,5.464,2.732,11.383,5.464,15.026,6.375,8.2,5.464,17.758,5.919,27.32-5.009-8.2-9.562-16.847-14.571-25.5-7.285-11.839-13.2-21.4-9.562-37.337.455-2.277-1.821-4.553-3.187-3.187-10.017,8.2-18.213-7.741-29.141-2.277-6.83,3.187-12.294,10.473-17.758,17.3,3.643-15.937,14.571-48.265-1.366-45.533-3.187.455-4.1,3.187-6.83,0a40.8,40.8,0,0,0-8.651-6.83c-7.741-4.553-17.3-4.1-24.133-12.294,2.732-8.651,6.83-14.571,10.017-16.392h.455c.455,0,2.732,2.277,4.553,4.553A163.274,163.274,0,0,0,54.805,97.322c9.562,7.285,10.473,8.2,12.294,8.2h2.277l1.366-2.732c1.366-2.732.455-5.464,0-7.285-.911-3.187-1.366-4.1,1.821-5.919.455-.455,1.366-.455,1.821-.911.911,4.1,3.187,9.562,9.562,15.937a67.079,67.079,0,0,1,11.383,13.2c2.732,4.1,4.553,5.919,10.928,8.2a29.028,29.028,0,0,1,3.187.911,27.85,27.85,0,0,0,2.277,5.464C117.186,142.4,129.935,147.409,124.016,163.8Z" transform="translate(71.777 263.302)"/>
  <path id="Path_4" data-name="Path 4" class="cls-1" d="M346.207,218.839c5.009,10.017,10.473,20.035,15.937,29.6s8.651,20.49,13.66,30.507c14.571,30.052,35.061,53.274,50.542,82.415,6.375,11.383,10.473,25.043,17.758,35.516,6.83,10.473,15.026,19.579,22.767,28.686,15.481,17.758,32.329,36.882,36.427,63.291-7.741-10.473-13.2-22.767-20.49-33.695-8.2-12.294-14.571-16.392-27.32-15.481-14.115,1.366-24.588-10.473-38.248-1.821-5.919,3.643-5.919,25.043-17.758,15.026-4.553-4.1-8.651-8.2-14.115-10.473-17.3-6.375-35.516-5.919-53.274-12.749-7.285-2.732-14.115-6.83-21.856-5.464-10.928,1.821-15.481-3.643-23.677-10.928-4.553-4.1-18.213-13.2-23.222-5.464-2.732,4.1-1.821,10.017-1.366,15.937-9.562-13.66-18.669-28.231-32.329-35.971-1.366-.911-2.277-.455-3.187.911-.911,1.821-1.821,3.187-2.732,5.009-15.481-11.383-30.963-23.677-48.265-31.418-13.66-6.375-32.329-7.285-43.257-20.49,16.392,0,34.15,7.741,47.81,19.124,7.285,6.375,10.017-3.643,16.847-9.107,1.366-.911,2.277-3.643,3.643-3.643a18.478,18.478,0,0,1,8.651,1.821c5.919,2.277,11.839,5.464,17.758,7.741,20.035,7.285,40.069,15.481,60.1,22.767.911.455,2.732-.455,2.732-2.277,3.643-21.856,18.669-10.928,27.32-1.366a2.2,2.2,0,0,0,3.187,0c7.741-8.651,17.3,9.562,25.043,11.839,3.643.911,10.928,0,13.2-4.1,3.187-5.464-.455-10.928-1.366-16.847-1.821-11.839,7.285-14.115,7.285-23.677,0-3.187,0-8.651-2.277-10.928-3.643-3.643-7.285-5.009-5.464-13.2,1.366-6.83-4.1-20.035-6.83-25.954-8.2-15.481-27.775-36.427-44.167-31.418-8.651,2.732-11.383,13.2-21.4,13.66-6.83.455-14.115-.911-19.124,5.919-2.277,3.187-2.732,8.651-3.643,12.749-4.1,17.758-17.3,6.375-22.311-1.366s-8.651-17.758-14.571-24.133c-12.294-13.66-31.418-15.937-46.444-22.311-17.3-7.741-36.427-17.758-45.533-38.7,7.741,7.285,16.847,13.2,25.954,10.473,20.945-6.83,34.15,10.928,49.631,26.409a2.068,2.068,0,0,0,2.277,0c9.107-7.285,14.115,7.285,22.311,6.375a3.363,3.363,0,0,0,2.732-2.277c5.009-6.83,9.107-2.732,13.2,2.277,7.285,9.107,15.026,19.124,24.133,7.741,2.277-3.187,3.643-7.741,5.919-10.473,5.009-5.464,5.464-.455,9.562-.911,2.732-.455,5.009-1.821,5.464-5.919.911-5.919,1.366-10.473-.911-15.937-2.732-5.919-11.839-9.107-8.651-18.669.455-1.366.455-3.187-.911-4.1-15.026-10.928-14.115-27.775-18.213-46.9-.455-1.821-1.821-2.732-3.187-1.821-10.473,5.919-10.017-7.285-17.758-4.553-4.1,1.366-4.553,5.464-9.562,3.187-10.017-5.009-10.473-12.749-1.366-20.945a3.5,3.5,0,0,0,.455-4.553c-1.821-8.651,0-14.571,5.464-16.392a3.419,3.419,0,0,0-.455-5.464c-9.562-4.553-34.605-3.643-26.865-24.588a3.2,3.2,0,0,0-1.821-4.553c-13.2-.911-1.821-18.669,0-24.588,1.821-5.009,3.643-10.473,4.1-16.392.455-2.732-.455-5.009-1.366-7.285a69.171,69.171,0,0,1-4.553-21.4V2.555a1.41,1.41,0,0,1,.911-.455c.911,0,2.277,1.366,4.1,3.187s4.1,4.1,6.83,6.375c4.553,3.187,7.285,17.3,10.017,29.6s5.464,24.588,10.017,33.695c5.009,10.017,5.919,11.383,9.107,11.383a3.849,3.849,0,0,0,2.732-.911c.455,0,2.732.911,6.83,3.643,5.009,3.643,6.83,5.009,7.741,5.464,1.366,1.366,4.1,3.643,7.741,6.83q3.415,2.732,5.464,4.1c.455,3.643,2.277,7.741,6.83,15.026,9.562,14.115,10.928,20.035,13.2,27.775q1.366,4.1,2.732,9.562c2.732,8.2,4.553,10.473,8.651,16.392,3.643,5.009,8.651,12.294,18.669,28.231l1.366,2.732,9.562,1.366C342.109,211.1,344.385,215.2,346.207,218.839Z" transform="translate(469.75 7.462)"/>
  <path id="Path_5" data-name="Path 5" class="cls-1" d="M249.2,137.582c-5.009-.455-9.562-21.856-10.928-25.954a114.6,114.6,0,0,0-7.741-18.669c-5.464-10.017-13.66-12.749-22.311-16.847-2.277-.911-4.1-5.009-6.375-5.009-6.375,0-10.017,0-15.026-6.375A9.929,9.929,0,0,1,185,62.452c0-.911.455-1.821.455-2.732,4.1-19.124,7.741-25.954,9.562-27.32a39.819,39.819,0,0,1,4.553,3.643c3.643,2.732,8.2,6.375,19.124,15.026,9.562,7.285,9.562,8.651,12.749,16.392,1.366,4.1,3.643,10.017,7.741,19.124,3.643,7.741,5.919,11.839,7.285,15.026,3.187,6.375,3.187,6.375,11.839,35.516a76.007,76.007,0,0,1,2.277,8.2C256.943,140.769,253.3,138.037,249.2,137.582Z" transform="translate(657.367 115.128)"/>
  <path id="Path_6" data-name="Path 6" class="cls-1" d="M364.692,199.871a19.727,19.727,0,0,0,2.277-.455c.455,0,.911.455,1.366.911-.455,11.839-1.821,23.222-5.464,35.061-6.375-8.651-15.026-23.222-17.3-33.695-1.821-7.285-1.821-20.945-6.83-25.954-3.643-3.643-10.928-4.553-13.66-9.107-2.277-3.643-4.553-8.2-7.285-10.928-8.2-7.285-17.758-12.294-25.954-18.669-.911-.911-2.277-.455-3.187.911-9.107,19.124-2.277,44.167-11.383,64.2-6.375,14.571-16.847,24.133-30.052,25.5-9.107.911-21.856.911-28.686-9.107-4.1-6.375,15.937-12.749,18.669-14.115,5.464-2.732,10.017-8.2,13.2-14.115,3.187-6.375,5.919-12.749,10.017-18.213a11.688,11.688,0,0,0,2.277-5.464c1.366-5.009-2.732-9.107-5.464-11.383-3.187-2.732,4.553-30.052,5.009-34.605.911-7.741.911-13.66-2.277-20.035-7.741-14.571-24.588,1.821-32.784,5.464a42.634,42.634,0,0,1-7.285,1.821c.455-4.553,1.821-10.017,5.919-18.669a177.6,177.6,0,0,0,9.107-21.856c1.821-4.553,2.277-5.919,4.553-9.562,3.643-5.009,10.473-6.83,15.026-8.2a11.583,11.583,0,0,1,3.187-.911c1.821.911,7.741,9.562,12.749,16.847l2.277,3.187c5.009,7.285,5.919,10.473,8.2,17.758,1.821,6.375,4.553,14.571,10.473,29.141,5.464,13.2,8.2,16.847,11.839,16.847,4.553,0,5.919-5.919,6.375-9.107.455-1.366.911-4.553,1.821-5.009,5.919,1.821,5.919,1.821,9.562,8.2,1.821,3.187,3.643,7.285,7.285,13.2,6.375,10.928,8.2,14.571,11.383,20.035,2.277,4.553,5.464,10.473,12.749,23.222C360.138,197.594,361.5,199.871,364.692,199.871Z" transform="translate(774.552 173.047)"/>
  <path id="Path_7" data-name="Path 7" class="cls-2" d="M0,555.051H1366l-6.83-10.017c-9.562-13.66-25.954-37.337-28.231-43.712-1.366-4.1-3.187-5.919-5.009-8.2-2.732-3.643-6.83-8.2-13.2-30.052-3.643-12.749-5.009-19.124-5.919-23.222-1.821-7.741-2.277-9.107-9.107-23.222a69.59,69.59,0,0,1-5.464-15.026c-2.277-9.107-4.553-10.473-15.937-12.294-18.669-3.187-30.052-10.017-36.882-20.945-2.277-4.1-2.277-5.009-2.277-5.919,1.366-7.741-3.187-10.928-11.383-15.937-8.2-5.464-10.928-7.285-11.839-8.651-2.277-1.821-2.732-1.821-5.919-2.732a72.624,72.624,0,0,1-7.285-5.464c-7.285-5.919-15.481-12.749-21.856-12.749-5.009,0-8.651,3.643-9.562,10.017a120.45,120.45,0,0,0-2.277,17.3c-.911,10.017-1.821,15.026-4.1,15.937-5.009,1.821-6.83,5.919-7.741,8.651a34.681,34.681,0,0,1-4.1-3.187c-4.553-4.1-7.741-5.919-10.017-5.464-1.821-2.732-5.464-9.107-6.83-11.839-6.83-12.294-10.017-18.213-12.749-23.222-3.187-5.464-5.009-9.562-11.839-20.49q-4.781-8.2-6.83-12.294c-4.553-9.107-5.919-10.473-15.026-12.749a4.1,4.1,0,0,0-2.277-.455c-5.009,0-7.741,5.009-9.107,9.107-.911-1.366-1.366-3.643-2.732-5.919-5.464-14.115-8.2-21.856-10.017-27.775-2.277-7.741-4.1-12.749-10.017-21.4l-2.277-3.187c-9.107-13.2-14.115-20.945-19.579-20.945a4.105,4.105,0,0,0-2.277.455c-.911.455-1.821.455-2.732.911-5.009,1.366-13.66,4.1-19.579,11.383a50.2,50.2,0,0,0-6.83,12.749,210.955,210.955,0,0,1-8.651,20.945,89.372,89.372,0,0,0-7.741,25.954c-.455,4.553-.455,5.464-3.187,7.741a14.6,14.6,0,0,0-4.1,6.83h-7.741c-10.928,0-17.758,3.187-22.311,5.009-1.366.455-2.732,1.366-3.643,1.366-.455-.911-.911-2.732-2.277-8.651-2.277-12.294-3.643-15.026-6.375-18.669-1.821-2.732-4.553-7.285-10.928-28.686-8.651-29.6-8.651-30.507-12.749-37.793-1.366-2.732-3.643-6.83-6.83-14.115-3.643-8.2-5.919-13.66-7.285-17.758-3.643-9.562-4.553-12.294-15.937-21.4-10.928-8.651-15.481-12.294-19.124-15.026-1.821-1.366-3.187-2.277-5.009-3.643a7.344,7.344,0,0,0-4.1-1.366c-2.732,0-10.473,0-18.213,35.971a71.542,71.542,0,0,0-1.821,16.847c0,3.187,0,3.187-1.821,5.009l-.455.455c-5.009,5.464-5.919,6.375-15.026,7.285l-8.2,1.366c-9.107-15.026-14.115-22.311-17.3-26.409-3.643-5.464-4.553-6.375-6.83-13.2-1.366-3.187-1.821-6.375-2.732-8.651-2.277-8.2-4.553-15.481-15.026-31.418a62.37,62.37,0,0,1-4.553-8.2c.911-4.553-1.366-6.375-9.562-13.2-5.464-4.553-6.83-5.464-6.83-5.464h0a55.313,55.313,0,0,0-9.107-6.83c-5.919-4.1-10.017-5.919-12.749-5.464a30.321,30.321,0,0,1-2.732-5.464c-3.643-7.285-6.375-19.124-8.651-30.052-3.643-15.937-6.83-31.418-14.571-36.882-2.277-1.821-4.1-3.643-5.919-5.009C687.553,3.187,684.821,0,680.723,0c-4.553,0-8.651,3.187-15.481,11.839-7.285,9.107-10.473,19.124-13.2,27.775-3.643,10.473-5.919,16.392-11.383,19.124-5.464,2.277-6.375,1.821-7.741,1.821-4.1-.455-6.375.911-16.847,11.383-5.009,5.009-8.651,8.2-10.928,10.473-6.83,5.919-8.651,7.741-15.481,22.311-4.553,9.107-4.553,15.026-5.009,18.669,0,2.732,0,4.1-10.017,10.017-15.026,9.107-23.222,22.311-30.052,34.15-2.732,5.009-5.919,9.562-8.651,13.66a48.389,48.389,0,0,1-4.1,5.009c-8.2,10.017-11.839,15.026-11.839,25.5v4.553c0,3.187,0,3.643-7.285,13.2-3.187,4.553-5.464,4.553-8.2,5.009-6.83.911-10.017,4.1-12.749,20.035-.455,4.553-1.366,8.651-1.821,12.294-1.366,12.749-2.277,16.392-4.1,16.392a11.583,11.583,0,0,1-3.187-.911c-2.732-.911-4.1-1.366-5.009-1.366h-1.366c-1.366-.911-3.187-1.821-5.464-3.187a75.846,75.846,0,0,0-16.392-7.285c-8.651-3.187-10.928-3.643-15.026-20.49-3.643-13.66-3.643-20.035-3.643-25.5a51.252,51.252,0,0,0-2.732-16.847,4.1,4.1,0,0,0,2.277.455h3.187l.911-4.1c.911-4.553.911-4.553-15.481-19.124a136.492,136.492,0,0,0-23.222-19.124c-4.553-3.187-5.919-3.643-10.928-11.839-4.1-6.375-5.009-12.749-5.464-17.758-.911-5.919-2.277-16.847-14.115-10.473-8.651,4.553-11.383,7.285-15.937,11.839-2.277,2.277-4.553,4.553-8.2,7.741-11.839,10.017-15.937,20.49-20.035,37.337-1.366,6.375-.911,12.749,0,18.669.455,4.553.911,9.562,0,11.383-.455.455-1.821,1.821-6.375,1.821h-1.821a35.39,35.39,0,0,1-17.3-5.009,13.549,13.549,0,0,0-6.83-2.277c-4.553,0-7.741,4.1-10.473,8.2-7.285,10.473-7.741,18.213-7.741,25.043a29.358,29.358,0,0,1-1.366,9.107c-.911,3.187-.911,5.464,0,7.285-.455,0-.455,0-.911.455l-13.66,4.553c-14.571,6.83-14.571,6.83-23.677,10.017a49.777,49.777,0,0,0-28.231,32.784c-2.277,8.651-2.732,16.847-3.187,24.133a135.843,135.843,0,0,1-1.821,15.026l-.455,1.821c-1.821,9.107-2.277,10.017-9.562,19.124a60.059,60.059,0,0,0-5.919,9.107c-1.821,4.1-1.821,4.1-3.187,4.1a8.89,8.89,0,0,1-3.187-.455c-4.1-1.366-4.1-1.821-6.375-4.553a90.57,90.57,0,0,0-12.294-14.571c-6.375-6.375-6.375-10.017-6.375-12.294-.455-6.83-4.1-7.741-5.464-7.741-1.821,0-3.643.911-8.2,3.643-3.187,1.821-6.83,5.009-7.741,10.017-.911-.455-1.821-1.366-2.732-1.821-9.562-7.285-15.026-13.66-18.669-17.3-4.1-4.553-6.83-7.285-10.473-7.285a10.717,10.717,0,0,0-3.643.911c-7.285,3.643-14.571,15.937-17.3,30.507-.911,4.1-.455,9.107-.455,15.026.455,15.026.911,33.695-12.749,48.721C46.444,445.316,34.15,464.44,31.418,478.1c-1.821,8.651,1.821,12.294,3.187,14.115h0c0,.911-.911,2.732-2.732,6.83-9.562,18.213-26.409,45.989-26.409,46.444Zm1304.074-87.879c6.83,24.588,11.839,30.507,15.481,34.605.455.455.911,1.366,1.366,1.821-4.553,3.643-9.562,5.919-14.115,5.919-9.107,0-9.562-14.571-11.383-23.677a3.363,3.363,0,0,0-2.732-2.277,23.793,23.793,0,0,0-6.83,3.187c-1.821-6.375-5.009-10.017-10.473-12.749h0a.446.446,0,0,1-.455-.455c-1.366-.455-2.277,0-2.277,1.366-8.2,3.187-8.651-15.481-18.669-8.2-4.553,3.187-9.562-3.643-14.571-4.1-7.741-.911-13.66,3.187-20.945,3.187-18.213.455-37.793-8.651-50.087-26.409a79.249,79.249,0,0,1-8.2-15.026v-.455l.455.455c3.643,3.187,6.83,7.285,10.928,10.473,8.2,6.83,17.758,5.009,27.32,5.919a31.68,31.68,0,0,0,24.588-8.651c5.464-4.553,11.383-13.66,5.464-21.856-6.83-9.107-23.677-12.749-15.481-29.141.911-1.366,0-3.187-.911-4.1a231.2,231.2,0,0,1-24.588-22.767c-3.643-4.1-7.285-9.107-11.383-12.749.455-3.643.911-7.741,1.821-11.839,0-.911.455-.911.455-.911h.455c4.1,0,11.839,6.375,16.847,10.928,5.009,4.1,8.2,6.375,10.473,7.285a6.093,6.093,0,0,0,2.277.455l.455.455c1.366,1.366,4.1,3.643,13.2,9.107a39.47,39.47,0,0,1,6.375,4.553c-.455,4.1.455,7.741,4.1,14.115,8.2,13.66,21.856,21.856,42.8,25.5,2.277.455,6.83,1.366,7.741,2.277a9.264,9.264,0,0,1,.455,2.277,97.386,97.386,0,0,0,6.375,18.213c6.375,12.749,6.375,13.2,8.2,20.035C1299.066,447.593,1300.432,454.423,1304.074,467.172ZM1126.039,355.16c8.651,15.026,10.017,17.758,13.2,17.758a19.722,19.722,0,0,0,2.277-.455c.455,0,.911.455,1.366.911-.455,11.839-1.821,23.222-5.464,35.061-6.375-8.651-15.026-23.222-17.3-33.695-1.821-7.285-1.821-20.945-6.83-25.954-3.643-3.643-10.928-4.553-13.66-9.107-2.277-3.643-4.553-8.2-7.285-10.928-8.2-7.285-17.758-12.294-25.954-18.669-.911-.911-2.277-.455-3.187.911-9.107,19.124-2.277,44.167-11.383,64.2-6.375,14.571-16.847,24.133-30.052,25.5-9.107.911-21.856.911-28.686-9.107-4.1-6.375,15.937-12.749,18.669-14.115,5.464-2.732,10.017-8.2,13.2-14.115,3.187-6.375,5.919-12.749,10.017-18.213a11.688,11.688,0,0,0,2.277-5.464c1.366-5.009-2.732-9.107-5.464-11.383-3.187-2.732,4.553-30.052,5.009-34.605.911-7.741.911-13.66-2.277-20.035-7.741-14.571-24.588,1.821-32.784,5.464a42.634,42.634,0,0,1-7.285,1.821c.455-4.553,1.821-10.017,5.919-18.669a177.593,177.593,0,0,0,9.107-21.856c1.821-4.553,2.277-5.919,4.553-9.562,3.643-5.009,10.473-6.83,15.026-8.2a11.583,11.583,0,0,1,3.187-.911c1.821.911,7.741,9.562,12.749,16.847l2.277,3.187c5.009,7.285,5.919,10.473,8.2,17.758,1.821,6.375,4.553,14.571,10.473,29.141,5.464,13.2,8.2,16.847,11.839,16.847,4.553,0,5.919-5.919,6.375-9.107.455-1.366.911-4.553,1.821-5.009,5.919,1.821,5.919,1.821,9.562,8.2,1.821,3.187,3.643,7.285,7.285,13.2,6.375,10.928,8.2,14.571,11.383,20.035C1116.022,336.947,1118.754,342.866,1126.039,355.16ZM915.22,251.344a76,76,0,0,1,2.277,8.2c-3.187-3.643-6.83-6.375-11.383-6.83-5.009-.455-9.562-21.856-10.928-25.954a114.6,114.6,0,0,0-7.741-18.669c-5.464-10.017-13.66-12.749-22.311-16.847-2.277-.911-4.1-5.009-6.375-5.009-6.375,0-10.017,0-15.026-6.375a9.931,9.931,0,0,1-1.821-2.277c0-.911.455-1.821.455-2.732,4.1-19.124,7.741-25.954,9.562-27.32a39.821,39.821,0,0,1,4.553,3.643c3.643,2.732,8.2,6.375,19.124,15.026,9.562,7.285,9.562,8.651,12.749,16.392,1.366,4.1,3.643,10.017,7.741,19.124,3.643,7.741,5.919,11.839,7.285,15.026C907.024,222.2,907.024,222.2,915.22,251.344ZM802.753,214.917l7.741-.911q2.732,6.83,5.464,12.294c5.009,10.017,10.473,20.035,15.937,29.6s8.651,20.49,13.66,30.507c14.571,30.052,35.061,53.274,50.542,82.415,6.375,11.383,10.473,25.043,17.758,35.516,6.83,10.473,15.026,19.579,22.767,28.686,15.481,17.758,32.329,36.882,36.427,63.291-7.741-10.473-13.2-22.767-20.49-33.695-8.2-12.294-14.571-16.392-27.32-15.481-14.115,1.366-24.588-10.473-38.248-1.821-5.919,3.643-5.919,25.043-17.758,15.026-4.553-4.1-8.651-8.2-14.115-10.473-17.3-6.375-35.516-5.919-53.274-12.749-7.285-2.732-14.115-6.83-21.856-5.464-10.928,1.821-15.481-3.643-23.677-10.928-4.553-4.1-18.213-13.2-23.222-5.464-2.732,4.1-1.821,10.017-1.366,15.937-9.562-13.66-18.669-28.231-32.329-35.971-1.366-.911-2.277-.455-3.187.911-.911,1.821-1.821,3.187-2.732,5.009-15.481-11.383-30.963-23.677-48.265-31.418-13.66-6.375-32.329-7.285-43.257-20.49,16.392,0,34.15,7.741,47.81,19.124,7.285,6.375,10.017-3.643,16.847-9.107,1.366-.911,2.277-3.643,3.643-3.643a18.478,18.478,0,0,1,8.651,1.821c5.919,2.277,11.839,5.464,17.758,7.741,20.035,7.285,40.069,15.481,60.1,22.767.911.455,2.732-.455,2.732-2.277,3.643-21.856,18.669-10.928,27.32-1.366a2.2,2.2,0,0,0,3.187,0c7.741-8.651,17.3,9.562,25.043,11.839,3.643.911,10.928,0,13.2-4.1,3.187-5.464-.455-10.928-1.366-16.847-1.821-11.839,7.285-14.115,7.285-23.677,0-3.187,0-8.651-2.277-10.928-3.643-3.643-7.285-5.009-5.464-13.2,1.366-6.83-4.1-20.035-6.83-25.954-8.2-15.481-27.775-36.427-44.167-31.418-8.651,2.732-11.383,13.2-21.4,13.66-6.83.455-14.115-.911-19.124,5.919-2.277,3.187-2.732,8.651-3.643,12.749-4.1,17.758-17.3,6.375-22.311-1.366s-8.651-17.758-14.571-24.133c-12.294-13.66-31.418-15.937-46.444-22.311-17.3-7.741-36.427-17.758-45.533-38.7,7.741,7.285,16.847,13.2,25.954,10.473,20.945-6.83,34.15,10.928,49.631,26.409a2.068,2.068,0,0,0,2.277,0c9.107-7.285,14.115,7.285,22.311,6.375a3.363,3.363,0,0,0,2.732-2.277c5.009-6.83,9.107-2.732,13.2,2.277,7.285,9.107,15.026,19.124,24.133,7.741,2.277-3.187,3.643-7.741,5.919-10.473,5.009-5.464,5.464-.455,9.562-.911,2.732-.455,5.009-1.821,5.464-5.919.911-5.919,1.366-10.473-.911-15.937-2.732-5.919-11.839-9.107-8.651-18.669.455-1.366.455-3.187-.911-4.1-15.026-10.928-14.115-27.775-18.213-46.9-.455-1.821-1.821-2.732-3.187-1.821-10.473,5.919-10.017-7.285-17.758-4.553-4.1,1.366-4.553,5.464-9.562,3.187-10.017-5.009-10.473-12.749-1.366-20.945a3.5,3.5,0,0,0,.455-4.553c-1.821-8.651,0-14.571,5.464-16.392a3.419,3.419,0,0,0-.455-5.464c-9.562-4.553-34.605-3.643-26.865-24.588a3.2,3.2,0,0,0-1.821-4.553c-13.2-.911-1.821-18.669,0-24.588,1.821-5.009,3.643-10.473,4.1-16.392.455-2.732-.455-5.009-1.366-7.285a69.172,69.172,0,0,1-4.553-21.4V10.017a1.41,1.41,0,0,1,.911-.455c.911,0,2.277,1.366,4.1,3.187s4.1,4.1,6.83,6.375c4.553,3.187,7.285,17.3,10.017,29.6s5.464,24.588,10.017,33.695c5.009,10.017,5.919,11.383,9.107,11.383a3.849,3.849,0,0,0,2.732-.911c.455,0,2.732.911,6.83,3.643,5.009,3.643,6.83,5.009,7.741,5.464,1.366,1.366,4.1,3.643,7.741,6.83q3.415,2.732,5.464,4.1c.455,3.643,2.277,7.741,6.83,15.026,9.562,14.115,10.928,20.035,13.2,27.775q1.366,4.1,2.732,9.562c2.732,8.2,4.553,10.473,8.651,16.392,3.643,5.009,8.651,12.294,18.669,28.231ZM432.567,254.076c5.464,21.4,10.928,24.133,21.4,27.775a34.589,34.589,0,0,1,5.009,1.821,22.869,22.869,0,0,1-.911,9.562c-1.821,4.553-2.277,8.651-2.732,13.66-.911,19.579-4.553,33.695-21.4,37.337-1.366.455-1.821,2.732-1.366,4.1A77.47,77.47,0,0,1,437.12,362.9c1.821,10.928-5.464,10.473-11.383,7.285-1.366-.911-3.643,1.366-2.732,3.643,6.375,20.035-3.187,33.239-5.009,52.819-1.366,18.669-5.919,32.329-13.66,46.444.455-12.749,1.366-26.865-1.366-37.793-1.366-5.009-8.651-16.392-6.83-20.035a75.809,75.809,0,0,0,5.464-10.473c2.277-7.285,0-15.026-5.464-18.669-1.366-.911-4.553-3.187-6.375-2.277-4.553,1.821-4.1,1.821-7.285-3.187C377.927,372.918,367,367,359.713,365.177c-3.187-.455-9.562-1.821-12.294,1.366-5.009,6.375-6.83,19.124-10.473,27.32-4.1,9.562-9.107,18.669-15.481,25.043,6.375-16.392.455-41.435,8.651-57.372,1.366-2.277-.911-5.009-2.732-4.1-16.392,5.919-11.383-27.32-19.124-37.793-5.009-6.83-11.383-11.839-13.66-20.945-2.277-8.651-5.464-18.213-5.464-27.775,5.464,10.017,11.383,20.035,15.481,30.963,3.187,7.741,9.562,10.017,15.481,12.294,8.651,3.187,7.285,17.758,17.3,19.579,10.473,2.277,20.945,3.187,31.418,4.553,7.741.911,13.66,7.285,20.945,5.464,2.732-.455,4.553-4.1,7.741-4.553a53.261,53.261,0,0,0,9.107-2.277c13.2-4.1,20.49-15.026,22.767-31.873.455-1.821-.911-4.553-2.732-3.643,2.732-1.366-.455-7.741-1.366-7.285a2.571,2.571,0,0,0,.911-2.732c-1.366-11.839-.455-18.213-6.375-28.231-4.1-6.375-9.107-14.571-15.481-16.392,2.277-12.749,8.651-24.133-5.464-25.954-14.571-1.821-34.605-5.464-45.533,9.562.455-8.651,5.919-17.3,13.2-18.669,3.643-.911,7.285-.455,10.928-1.366,4.553-1.366,6.83-4.1,9.562-9.107.455-1.366.455-3.187-.911-4.1-11.383-7.741-9.107-29.6-14.571-43.257-1.821-5.009-3.643-9.107-5.009-13.66a44.98,44.98,0,0,1,6.83-4.1,1.673,1.673,0,0,1,1.366-.455,19.72,19.72,0,0,0,.455,2.277c.911,5.464,1.821,14.115,7.741,22.767,6.375,10.017,8.2,11.383,14.115,15.026,4.1,2.732,10.928,6.83,24.133,18.669,1.366,1.366,3.187,2.732,4.1,3.643h0c-2.277,4.1-.455,9.107,0,10.928a35.74,35.74,0,0,1,2.732,15.481C428.013,231.309,428.469,239.05,432.567,254.076ZM181.678,389.31a27.852,27.852,0,0,0,2.277,5.464c5.009,10.928,17.758,15.481,11.839,32.329-1.821,5.464,2.732,11.383,5.464,15.026,6.375,8.2,5.464,17.758,5.919,27.32-5.009-8.2-9.562-16.847-14.571-25.5-7.285-11.839-13.2-21.4-9.562-37.337.455-2.277-1.821-4.553-3.187-3.187-10.017,8.2-18.213-7.741-29.141-2.277-6.83,3.187-12.294,10.473-17.758,17.3,3.643-15.937,14.571-48.265-1.366-45.533-3.187.455-4.1,3.187-6.83,0a40.8,40.8,0,0,0-8.651-6.83c-7.741-4.553-17.3-4.1-24.133-12.294,2.732-8.651,6.83-14.571,10.017-16.392h.455c.455,0,2.732,2.277,4.553,4.553a163.268,163.268,0,0,0,19.579,18.669c9.562,7.285,10.473,8.2,12.294,8.2h2.277l1.366-2.732c1.366-2.732.455-5.464,0-7.285-.911-3.187-1.366-4.1,1.821-5.919.455-.455,1.366-.455,1.821-.911.911,4.1,3.187,9.562,9.562,15.937a67.079,67.079,0,0,1,11.383,13.2c2.732,4.1,4.553,5.919,10.928,8.2C179.4,388.855,180.767,389.31,181.678,389.31Z"/>
</svg>
