<svg xmlns="http://www.w3.org/2000/svg" viewBox="0 0 542.883 271.1">
  <defs>
    <style>
      .cls-1 {
        opacity: 0.32;
      }

      .cls-2 {
        fill: #f73859;
      }

      .cls-3 {
        fill: #404b69;
      }
    </style>
  </defs>
  <g id="mountain-about" class="cls-1" transform="translate(0.004)">
    <path id="Path_195" data-name="Path 195" class="cls-2" d="M156.329,49.551c.224,2.691,1.121,5.382-.448,7.848a22.175,22.175,0,0,1-6.5,5.606c-2.242,1.345-4.036,2.691-4.709,5.382-2.691,8.969-6.279,20.181-12.781,27.132-3.588,3.812-8.969,7.848-11.212,12.781-1.794,4.26,4.036,6.727,7.176,6.5,6.951-.673,12.109-4.709,19.284-2.018,6.054,2.018,11.66,2.915,15.921-2.467,2.467-3.139,4.485-6.5,7.176-9.194a37.386,37.386,0,0,1,3.588-2.691c1.121,7.176-5.606,11.884-5.606,19.284,0,2.242,1.121,6.279,0,8.3-2.467,4.036-10.539,5.382-15.024,4.933-3.812-.448-5.83-1.794-8.745-4.036a5.718,5.718,0,0,0-2.691-1.794,6.649,6.649,0,0,0-5.83.448c-1.794.9-3.139,2.467-4.709,3.812-3.139,2.691-6.279,1.57-9.642-.224a1.182,1.182,0,0,0-1.57.448c-4.26,7.4-15.7-3.588-20.854-5.382-3.588-1.121-7.624-1.121-11.212-2.018-2.915-.673-6.5-1.345-7.848-4.485a46.235,46.235,0,0,0-2.691-5.83c-.224-.673-1.345-.673-1.794-.224-2.691,3.364-3.139,6.5-2.691,10.763.224,2.691.9,7.4-1.345,9.418-1.121.9-2.242,1.121-3.364,2.018a6.854,6.854,0,0,0-2.691,7.176c.673,3.139,4.036,9.642-1.794,11.212a11.422,11.422,0,0,0-3.812,1.57,9.771,9.771,0,0,0-2.915,3.139c-2.018,2.915-5.606,5.157-8.745,6.727-6.279,2.915-13.454,4.933-20.405,4.485a22.887,22.887,0,0,1-9.642-2.691c3.812-.673,8.3-1.57,13.678-2.915,17.042-4.485,14.575-13.9,12.557-21.527-.9-3.588-1.794-6.951-.9-9.866.9-3.139,1.794-6.727,2.691-10.315,2.242-9.194,4.485-19.733,9.194-26.46,2.242-3.139,3.139-3.364,4.036-3.364,1.345,0,3.139.673,5.83,1.794a103.984,103.984,0,0,0,22.872,6.727,93.87,93.87,0,0,0,17.49,1.794c10.988,0,14.8-3.364,18.836-7.176.673-.448,1.121-1.121,1.794-1.57,5.83-4.933,5.157-9.418,4.485-13.9a36.805,36.805,0,0,1-.448-5.157c0-5.606,4.036-9.194,8.3-12.781l1.57-1.345c1.345-1.345,3.364-2.242,5.606-3.588A85.851,85.851,0,0,0,156.329,49.1Z" transform="translate(22.616 60.772)"/>
    <path id="Path_196" data-name="Path 196" class="cls-2" d="M306.224,205.057c-2.691,1.121-7.848-1.121-10.539-2.018-2.018-.673-4.26-1.345-6.279-2.242-2.691-1.345-2.691-4.26-3.364-6.727-1.121-3.812-5.83-3.139-8.521-4.036-4.26-1.345-3.588-6.727-5.606-9.642a84.362,84.362,0,0,1-5.606-6.951c-2.691-4.036-3.588-8.969-6.279-13.006-2.018-2.915-6.5-6.279-10.091-6.279-4.036.224-6.5,2.467-9.866,4.485-4.26,2.467-9.866,1.121-13.006,5.157a2.947,2.947,0,0,0-.673,2.691c.224,3.364-1.121,5.83-3.139,8.521-2.467,2.915-1.345,6.054.448,8.745,1.794,2.915,4.709,6.727,2.467,10.315a27.912,27.912,0,0,1-4.26,4.709c-2.242,2.018-4.933,5.157-3.812,8.3,2.018,6.279-3.812,8.521-5.606,13.678-1.794,5.382-4.709,10.988-3.812,17.042,1.121,6.279,2.242,11.436,0,17.042-1.794-3.588-3.588-7.176-5.606-10.539-2.242-3.364-5.606-6.279-7.4-9.866-2.467-4.933,2.242-10.091-.9-15.248-2.018-3.588-5.157-5.157-1.794-9.418a5.37,5.37,0,0,0,.9-4.485c-.673-3.139-2.467-5.382-4.26-7.848a22.4,22.4,0,0,1-4.485-10.315c-.9-4.933-3.588-6.727-7.848-8.969-6.279-3.139-11.212-7.624-18.163-8.745-15.248-2.915-31.617-4.709-43.726-15.024,6.951,2.467,14.351,6.5,21.078,3.588,8.745-4.036,20.854,1.345,29.151,4.709a1.078,1.078,0,0,0,1.345-.448c1.794-4.036,5.157-2.691,7.848-.9,2.915,1.794,6.054,3.588,9.194,1.121.673-.448.9-1.345,1.345-2.018,1.57-2.467,4.709-1.121,6.727-.673a20.312,20.312,0,0,0,7.4.673c2.467-.224,2.915-1.57,2.915-3.812.673-7.176,8.745-4.26,13.23-4.933,2.691-.448,5.157-1.57,5.382-4.709,0-1.345,0-2.691-1.121-3.812-2.242-2.242-1.57-3.812,0-6.054,2.242-3.139,2.691-4.26,2.018-8.072-.673-2.915-4.709-4.036-4.485-7.624.224-2.018.224-3.588-.9-5.157a55.328,55.328,0,0,0-6.279-6.279c-2.018-2.018-3.588-4.26-5.606-6.279-3.139-3.139-6.5-3.812-10.987-4.036-7.848-.673-21.751-3.139-24.217-12.333-1.345-4.933-1.794-6.727-6.727-8.072-1.57-.448-3.364-5.606-5.157-6.727a19.95,19.95,0,0,0-7.848-3.139c-6.5-1.121-13.678,0-19.733-2.018-2.691-.9-6.727-2.242-8.072-5.157-3.139-6.727,8.745-4.26,10.091-4.036a10.684,10.684,0,0,0,6.5-.448c1.794-.673,2.915-1.794,4.485-2.691,4.933-3.139,9.866-3.364,14.575-.224.448.224,1.121.224,1.345-.224,6.951-6.951-2.915-11.436-6.951-16.593-4.26-5.606,1.121-11.212-1.57-16.818-2.018-4.485-6.5-6.5-9.642-10.315a7.931,7.931,0,0,1-2.018-3.812l.673-.673c3.588-3.139,5.83-4.485,6.951-4.485a5.7,5.7,0,0,1,1.57.448,19.025,19.025,0,0,0,7.4.9c4.709-.224,5.606.673,9.418,4.036A92.466,92.466,0,0,0,177.065,17.6c9.194,6.5,16.145,10.539,22.2,14.351,4.26,2.691,8.521,5.157,12.557,7.848,4.709,3.364,4.485,4.26,3.812,7.848a33.217,33.217,0,0,0-.9,9.194c-6.951.448-13.678-.9-20.63-.448-2.242.224-7.176,0-8.072,2.691-1.121,2.915,1.121,4.933-2.018,7.4-.448.224-.448.9-.224,1.345,1.794,3.364,4.933,4.709,7.848,6.951,4.036,3.139,6.054,8.745,9.418,12.557a154.317,154.317,0,0,0,12.333,11.884c3.588,3.364,6.5,7.624,10.091,10.763,3.364,2.915,6.951,4.036,10.987,5.157a5.383,5.383,0,0,0,3.364,2.467c1.121.224,2.691.673,5.83,4.036,6.279,6.727,7.176,7.176,10.539,8.521a44.878,44.878,0,0,1,5.83,2.915c5.157,2.915,5.382,4.933,6.279,9.866A73.42,73.42,0,0,0,269,154.6c3.139,8.521,4.26,10.315,7.4,14.127a112.719,112.719,0,0,1,8.072,11.436c6.054,9.194,8.073,10.315,11.66,10.539,1.57.224,3.139.224,7.4,3.812a37.58,37.58,0,0,0,5.83,4.26C309.363,201.918,308.242,204.16,306.224,205.057Z" transform="translate(143.373 2.36)"/>
    <path id="Path_197" data-name="Path 197" class="cls-2" d="M272.119,155.125c-3.812.448-7.4-.673-11.212-3.364-3.588-2.467-8.072-5.382-10.539-9.418-2.018-3.364-3.139-7.176-5.606-10.315-1.121-1.345-2.467-2.691-3.588-4.036-2.467-3.139-2.018-4.26-2.467-7.848-.448-4.036-3.812-3.812-5.606-7.176-1.794-2.915-3.139-6.727-5.606-8.969a11.493,11.493,0,0,0-8.521-3.139A9.169,9.169,0,0,1,211.8,97.5c4.485-1.57,6.054-4.485,7.4-7.176a17.941,17.941,0,0,1,3.588-5.157c2.467-2.242,4.26-3.364,5.606-3.364a5.976,5.976,0,0,1,2.915,1.121c1.57.9,3.139,4.485,5.157,9.418.9,2.018,1.794,4.036,2.691,6.5,3.139,7.176,6.054,12.557,9.418,19.06,1.121,2.242,2.467,4.485,3.812,6.951,3.812,7.176,6.5,9.642,9.418,12.333a22.831,22.831,0,0,1,4.036,4.036C268.531,143.689,270.549,149.519,272.119,155.125Z" transform="translate(263.135 101.624)"/>
    <path id="Path_198" data-name="Path 198" class="cls-3" d="M.454,269.082.678,271.1h542.2l-.448-2.691c-.448-2.242-4.036-22.423-9.418-28.478-1.794-1.794-3.139-3.139-4.485-4.26-2.691-2.467-4.933-4.485-8.3-10.988-1.345-2.467-2.691-4.933-3.812-6.951-3.588-6.5-6.279-11.66-9.418-18.611a65.8,65.8,0,0,1-2.691-6.279c-2.691-6.279-4.26-10.091-7.4-11.66-1.57-.673-3.139-1.57-4.933-1.57-2.467,0-5.157,1.345-8.521,4.485a25.274,25.274,0,0,0-4.709,6.279c-1.57,3.139-2.691,4.933-7.848,5.83A34.241,34.241,0,0,0,463.947,198a13.078,13.078,0,0,1-4.485,1.121c-1.57,0-4.036-.673-8.969-4.933s-7.4-4.709-9.866-4.933c-1.57-.224-2.691-.224-8.3-8.521-4.036-6.054-6.5-9.418-8.3-11.66-2.915-3.812-3.812-4.933-6.727-13.006a61.831,61.831,0,0,1-2.691-10.763c-.9-5.382-1.345-9.194-8.521-13.006-3.139-1.794-4.933-2.467-6.279-3.139-2.691-1.121-3.139-1.345-8.969-7.624-3.588-3.812-5.83-4.709-7.848-5.382-.9-.224-1.345-.448-3.812-9.642-3.139-11.884-3.812-13.23-5.606-16.818-.9-1.794-1.794-4.036-3.588-8.3a73.612,73.612,0,0,0-3.812-8.521c-1.57-3.139-1.57-3.364-2.915-11.66a26.119,26.119,0,0,1,.448-9.866c1.121-4.709,1.121-7.848-5.606-12.557-4.26-2.915-8.521-5.382-12.781-8.072-6.054-3.588-12.781-7.624-21.975-14.127a118.731,118.731,0,0,1-11.66-9.866c-3.812-3.588-5.83-5.83-12.781-5.382a13.221,13.221,0,0,1-5.83-.673A11.125,11.125,0,0,0,290.165,0c-2.467,0-4.933,1.345-9.866,5.606-3.812,3.364-6.727,7.4-9.642,11.436-5.157,7.176-9.418,13.23-17.042,12.333a38.381,38.381,0,0,1-13.454-4.036c-3.588-1.57-7.176-3.139-12.781-2.915-3.139.224-4.933-1.121-6.5-2.242a6.361,6.361,0,0,0-3.812-1.57c-3.139,0-4.709,3.139-6.951,9.418-1.345,3.812-2.242,6.5-2.915,8.521-2.242,6.279-2.691,7.624-6.951,22.648-1.345,4.709-2.242,8.521-3.139,12.109-2.915,11.66-4.485,18.163-13.23,27.132a66.023,66.023,0,0,1-17.266,13.23,33.656,33.656,0,0,0-6.279,4.036l-1.345,1.345c-4.709,4.036-9.866,8.521-9.866,16.145a21.93,21.93,0,0,0,.673,5.83c.673,4.036,1.121,6.5-2.915,9.866a12.819,12.819,0,0,0-1.794,1.57c-3.812,3.588-6.727,6.054-15.921,6.054a110.463,110.463,0,0,1-16.818-1.794,89.194,89.194,0,0,1-22.423-6.279c-3.139-1.345-5.382-2.242-7.4-2.242-3.588,0-5.83,2.691-7.624,5.382-5.157,7.624-7.624,18.387-9.866,28.029-.9,3.588-1.57,7.176-2.467,10.091-1.121,4.036-.224,8.3.9,12.333,2.018,7.848,3.364,12.781-9.418,16.145-13.23,3.364-21.751,3.812-26.908,3.812H24.223a6.086,6.086,0,0,0-3.588.673l-.448.224c-1.794,1.121-5.157,3.364-2.467,9.866a14.178,14.178,0,0,0,2.242,3.812c.224.448.673.9.673,1.121a15.124,15.124,0,0,1-2.691,2.467c-2.018,1.794-4.485,3.588-6.951,5.382C5.387,249.8,1.8,252.264.9,254.955-.667,258.543.23,267.288.454,269.082Zm529.194-26.011c2.018,2.242,4.036,8.072,5.606,13.678-3.812.448-7.4-.673-11.212-3.364-3.588-2.467-8.072-5.382-10.539-9.418-2.018-3.364-3.139-7.176-5.606-10.315-1.121-1.345-2.467-2.691-3.588-4.036-2.467-3.139-2.018-4.26-2.467-7.848-.448-4.036-3.812-3.812-5.606-7.176-1.794-2.915-3.139-6.727-5.606-8.969a11.493,11.493,0,0,0-8.521-3.139,9.169,9.169,0,0,1-7.176-3.364c4.485-1.57,6.054-4.485,7.4-7.176a17.941,17.941,0,0,1,3.588-5.157c2.467-2.242,4.26-3.364,5.606-3.364a5.976,5.976,0,0,1,2.915,1.121c1.57.9,3.139,4.485,5.157,9.418.9,2.018,1.794,4.036,2.691,6.5,3.139,7.176,6.054,12.557,9.418,19.06,1.121,2.242,2.467,4.485,3.812,6.951,3.812,7.176,6.5,9.642,9.418,12.333A27.913,27.913,0,0,1,529.648,243.071Zm-82.07-45.744a37.583,37.583,0,0,0,5.83,4.26c-.673,2.691-1.794,4.933-3.588,5.83-2.691,1.121-7.848-1.121-10.539-2.018-2.018-.673-4.26-1.345-6.279-2.242-2.691-1.345-2.691-4.26-3.364-6.727-1.121-3.812-5.83-3.139-8.521-4.036-4.26-1.345-3.588-6.727-5.606-9.642a84.362,84.362,0,0,1-5.606-6.951c-2.691-4.036-3.588-8.969-6.279-13.006-2.018-2.915-6.5-6.279-10.091-6.279-4.036.224-6.5,2.467-9.866,4.485-4.26,2.467-9.866,1.121-13.006,5.157a2.947,2.947,0,0,0-.673,2.691c.224,3.364-1.121,5.83-3.139,8.521-2.467,2.915-1.345,6.054.448,8.745,1.794,2.915,4.709,6.727,2.467,10.315a27.914,27.914,0,0,1-4.26,4.709c-2.242,2.018-4.933,5.157-3.812,8.3,2.018,6.279-3.812,8.521-5.606,13.678-1.794,5.382-4.709,10.988-3.812,17.042,1.121,6.279,2.242,11.436,0,17.042-1.794-3.588-3.588-7.176-5.606-10.539-2.242-3.364-5.606-6.279-7.4-9.866-2.467-4.933,2.242-10.091-.9-15.248-2.018-3.588-5.157-5.157-1.794-9.418a5.37,5.37,0,0,0,.9-4.485c-.673-3.139-2.467-5.382-4.26-7.848a22.4,22.4,0,0,1-4.485-10.315c-.9-4.933-3.588-6.727-7.848-8.969-6.279-3.139-11.212-7.624-18.163-8.745-15.248-2.915-31.617-4.709-43.726-15.024,6.951,2.467,14.351,6.5,21.078,3.588,8.745-4.036,20.854,1.345,29.151,4.709a1.078,1.078,0,0,0,1.345-.448c1.794-4.036,5.157-2.691,7.848-.9,2.915,1.794,6.054,3.588,9.194,1.121.673-.448.9-1.345,1.345-2.018,1.57-2.467,4.709-1.121,6.727-.673a20.312,20.312,0,0,0,7.4.673c2.467-.224,2.915-1.57,2.915-3.812.673-7.176,8.745-4.26,13.23-4.933,2.691-.448,5.157-1.57,5.382-4.709,0-1.345,0-2.691-1.121-3.812-2.242-2.242-1.57-3.812,0-6.054,2.242-3.139,2.691-4.26,2.018-8.072-.673-2.915-4.709-4.036-4.485-7.624.224-2.018.224-3.588-.9-5.157a55.328,55.328,0,0,0-6.279-6.279c-2.018-2.018-3.588-4.26-5.606-6.279-3.139-3.139-6.5-3.812-10.987-4.036-7.848-.673-21.751-3.139-24.217-12.333-1.345-4.933-1.794-6.727-6.727-8.072-1.57-.448-3.364-5.606-5.157-6.727a19.949,19.949,0,0,0-7.848-3.139c-6.5-1.121-13.678,0-19.733-2.018-2.691-.9-6.727-2.242-8.072-5.157-3.139-6.727,8.745-4.26,10.091-4.036a10.684,10.684,0,0,0,6.5-.448c1.794-.673,2.915-1.794,4.485-2.691,4.933-3.139,9.866-3.364,14.575-.224.448.224,1.121.224,1.345-.224,6.951-6.951-2.915-11.436-6.951-16.593-4.26-5.606,1.121-11.212-1.57-16.818-2.018-4.485-6.5-6.5-9.642-10.315a7.932,7.932,0,0,1-2.018-3.812l.673-.673c3.588-3.139,5.83-4.485,6.951-4.485a5.7,5.7,0,0,1,1.57.448,19.025,19.025,0,0,0,7.4.9c4.709-.224,5.606.673,9.418,4.036a92.465,92.465,0,0,0,12.333,10.315c9.194,6.5,16.145,10.539,22.2,14.351,4.26,2.691,8.521,5.157,12.557,7.848,4.709,3.364,4.485,4.26,3.812,7.848a33.217,33.217,0,0,0-.9,9.194c-6.951.448-13.678-.9-20.63-.448-2.242.224-7.176,0-8.072,2.691-1.121,2.915,1.121,4.933-2.018,7.4-.448.224-.448.9-.224,1.345,1.794,3.364,4.933,4.709,7.848,6.951,4.036,3.139,6.054,8.745,9.418,12.557a154.322,154.322,0,0,0,12.333,11.884c3.588,3.364,6.5,7.624,10.091,10.763,3.364,2.915,6.951,4.036,10.988,5.157a5.383,5.383,0,0,0,3.363,2.467c1.121.224,2.691.673,5.83,4.036,6.279,6.727,7.176,7.176,10.539,8.521a44.874,44.874,0,0,1,5.83,2.915c5.157,2.915,5.382,4.933,6.279,9.866a73.42,73.42,0,0,0,2.691,11.66c3.139,8.521,4.26,10.315,7.4,14.127a112.719,112.719,0,0,1,8.072,11.436c6.054,9.194,8.072,10.315,11.66,10.539C441.524,193.515,443.318,193.739,447.578,197.327ZM178.945,108.978v1.57c.224,2.691,1.121,5.382-.448,7.848a22.175,22.175,0,0,1-6.5,5.606c-2.242,1.345-4.036,2.691-4.709,5.382-2.691,8.969-6.279,20.181-12.781,27.132-3.588,3.812-8.969,7.848-11.212,12.781-1.794,4.26,4.036,6.727,7.176,6.5,6.951-.673,12.109-4.709,19.284-2.018,6.054,2.018,11.66,2.915,15.921-2.467,2.467-3.139,4.485-6.5,7.176-9.194a37.386,37.386,0,0,1,3.588-2.691c1.121,7.176-5.606,11.884-5.606,19.284,0,2.242,1.121,6.279,0,8.3-2.467,4.036-10.539,5.382-15.024,4.933-3.812-.448-5.83-1.794-8.745-4.036a5.718,5.718,0,0,0-2.691-1.794,6.649,6.649,0,0,0-5.83.448c-1.794.9-3.139,2.467-4.709,3.812-3.139,2.691-6.279,1.57-9.642-.224a1.182,1.182,0,0,0-1.57.448c-4.26,7.4-15.7-3.588-20.854-5.382-3.588-1.121-7.624-1.121-11.212-2.018-2.915-.673-6.5-1.345-7.848-4.485a46.233,46.233,0,0,0-2.691-5.83c-.224-.673-1.345-.673-1.794-.224-2.691,3.364-3.139,6.5-2.691,10.763.224,2.691.9,7.4-1.345,9.418-1.121.9-2.242,1.121-3.364,2.018a6.854,6.854,0,0,0-2.691,7.176c.673,3.139,4.036,9.642-1.794,11.212a11.422,11.422,0,0,0-3.812,1.57,9.771,9.771,0,0,0-2.915,3.139c-2.018,2.915-5.606,5.157-8.745,6.727-6.279,2.915-13.454,4.933-20.405,4.485a22.887,22.887,0,0,1-9.642-2.691c3.812-.673,8.3-1.57,13.678-2.915,17.042-4.485,14.575-13.9,12.557-21.527-.9-3.588-1.794-6.951-.9-9.866.9-3.139,1.794-6.727,2.691-10.315,2.242-9.194,4.485-19.733,9.194-26.46,2.242-3.139,3.139-3.364,4.036-3.364,1.345,0,3.139.673,5.83,1.794a103.984,103.984,0,0,0,22.872,6.727,93.87,93.87,0,0,0,17.49,1.794c10.988,0,14.8-3.364,18.836-7.176.673-.448,1.121-1.121,1.794-1.57,5.83-4.933,5.157-9.418,4.485-13.9a36.8,36.8,0,0,1-.448-5.157c0-5.606,4.036-9.194,8.3-12.781l1.57-1.345c1.345-1.345,3.364-2.242,5.606-3.588C171.321,114.136,174.684,112.117,178.945,108.978Z" transform="translate(0 0)"/>
  </g>
</svg>
