<svg xmlns="http://www.w3.org/2000/svg" viewBox="0 0 1390 467.784">
  <defs>
    <style>
      .cls-1 {
        opacity: 0.62;
      }

      .cls-2 {
        fill: #f73859;
      }
    </style>
  </defs>
  <g id="Background-stripes" class="cls-1">
    <path id="Path_8" data-name="Path 8" class="cls-2" d="M1042.5,124.748,868.75,0,695,124.748,521.25,0,347.5,124.748,173.75,0,0,124.748v49.036L173.75,49.036,347.5,173.784,521.25,49.036,695,173.784,868.75,49.036,1042.5,173.784,1216.25,49.036,1390,173.784V124.748L1216.25,0Z"/>
    <path id="Path_11" data-name="Path 11" class="cls-2" d="M1042.5,424.748,868.75,300,695,424.748,521.25,300,347.5,424.748,173.75,300,0,424.748v49.036L173.75,349.036,347.5,473.784,521.25,349.036,695,473.784,868.75,349.036,1042.5,473.784l173.75-124.748L1390,473.784V424.748L1216.25,300Z" transform="translate(0 -6)"/>
  </g>
</svg>
